{
.appVersion = "1230";
DisplayStrings = (
"/meem-ar.init",
"/_connection2",
"/heh-ar.init",
"/waw-ar",
"/heh-ar.fina"
);
date = "2019-09-16 14:55:29 +0000";
designer = "AbdElmomen Kadhim";
familyName = Darine;
fontMaster = (
{
alignmentZones = (
"{0, 30}"
);
ascender = 1500;
capHeight = 1000;
descender = -500;
id = "7C6EC3B8-53E3-46D5-865A-ED8DFE2E3A2E";
userData = {
GSOffsetHorizontal = 15;
GSOffsetKeepCompatible = 1;
GSOffsetMakeStroke = 1;
GSOffsetProportional = 1;
GSOffsetVertical = 10;
};
weight = Light;
weightValue = 35;
xHeight = 500;
}
);
glyphs = (
{
glyphname = "hamza-ar";
lastChange = "2019-09-16 17:24:44 +0000";
layers = (
{
anchors = (
{
name = bottom;
position = "{220, 253}";
},
{
name = top;
position = "{220, 869}";
}
);
background = {
paths = (
{
closed = 0;
nodes = (
"500 507 LINE",
"456 480 OFFCURVE",
"365 452 OFFCURVE",
"279 452 CURVE SMOOTH",
"182 452 OFFCURVE",
"89 500 OFFCURVE",
"9 630 CURVE SMOOTH"
);
},
{
closed = 0;
nodes = (
"379 762 LINE",
"347 770 OFFCURVE",
"320 774 OFFCURVE",
"296 774 CURVE SMOOTH",
"212 774 OFFCURVE",
"175 729 OFFCURVE",
"175 673 CURVE SMOOTH",
"175 596 OFFCURVE",
"224 507 OFFCURVE",
"320 452 CURVE"
);
}
);
};
layerId = "7C6EC3B8-53E3-46D5-865A-ED8DFE2E3A2E";
paths = (
{
closed = 1;
nodes = (
"74 499 OFFCURVE",
"167 437 OFFCURVE",
"279 437 CURVE SMOOTH",
"366 437 OFFCURVE",
"457 466 OFFCURVE",
"501 480 CURVE",
"492 509 LINE",
"448 495 OFFCURVE",
"361 467 OFFCURVE",
"279 467 CURVE SMOOTH",
"178 467 OFFCURVE",
"95 523 OFFCURVE",
"26 638 CURVE",
"0 622 LINE"
);
},
{
closed = 1;
nodes = (
"244 513 OFFCURVE",
"191 594 OFFCURVE",
"191 673 CURVE SMOOTH",
"191 728 OFFCURVE",
"229 759 OFFCURVE",
"295 759 CURVE SMOOTH",
"318 759 OFFCURVE",
"344 755 OFFCURVE",
"373 748 CURVE",
"381 777 LINE",
"349 785 OFFCURVE",
"320 789 OFFCURVE",
"295 789 CURVE SMOOTH",
"213 789 OFFCURVE",
"161 745 OFFCURVE",
"161 673 CURVE SMOOTH",
"161 584 OFFCURVE",
"220 492 OFFCURVE",
"311 439 CURVE",
"327 465 LINE"
);
}
);
width = 501;
}
);
unicode = 0621;
},
{
glyphname = "alef-ar";
lastChange = "2019-09-16 18:55:55 +0000";
layers = (
{
background = {
paths = (
{
closed = 0;
nodes = (
"31 1017 LINE",
"57 736 OFFCURVE",
"108 381 OFFCURVE",
"109 174 CURVE SMOOTH",
"110 16 OFFCURVE",
"99 -12 OFFCURVE",
"94 -40 CURVE SMOOTH"
);
}
);
};
layerId = "7C6EC3B8-53E3-46D5-865A-ED8DFE2E3A2E";
paths = (
{
closed = 1;
nodes = (
"111 -16 OFFCURVE",
"121 13 OFFCURVE",
"120 174 CURVE SMOOTH",
"119 313 OFFCURVE",
"99 517 OFFCURVE",
"78 721 CURVE SMOOTH",
"68 823 OFFCURVE",
"58 925 OFFCURVE",
"50 1018 CURVE",
"20 1016 LINE",
"43 735 OFFCURVE",
"89 380 OFFCURVE",
"90 174 CURVE SMOOTH",
"91 18 OFFCURVE",
"82 -9 OFFCURVE",
"77 -38 CURVE",
"107 -42 LINE"
);
}
);
width = 140;
}
);
rightMetricsKey = "=|";
unicode = 0627;
},
{
glyphname = "alef-ar.fina";
lastChange = "2019-09-16 19:01:41 +0000";
layers = (
{
anchors = (
{
name = exit;
position = "{393, 0}";
}
);
background = {
paths = (
{
closed = 0;
nodes = (
"435 12 LINE"
);
}
);
};
layerId = "7C6EC3B8-53E3-46D5-865A-ED8DFE2E3A2E";
paths = (
{
closed = 1;
nodes = (
"60 929 OFFCURVE",
"76 720 OFFCURVE",
"91 525 CURVE SMOOTH",
"106 327 OFFCURVE",
"120 141 OFFCURVE",
"160 89 CURVE SMOOTH",
"231 -3 OFFCURVE",
"343 0 OFFCURVE",
"393 0 CURVE",
"393 30 LINE",
"343 30 OFFCURVE",
"245 26 OFFCURVE",
"184 107 CURVE SMOOTH",
"115 199 OFFCURVE",
"131 819 OFFCURVE",
"48 1051 CURVE",
"20 1041 LINE"
);
}
);
width = 393;
}
);
unicode = FE8E;
},
{
glyphname = "behDotless-ar";
lastChange = "2019-09-16 20:12:26 +0000";
layers = (
{
anchors = (
{
name = "#entry";
position = "{1159, 0}";
},
{
name = "#exit";
position = "{75, 2}";
}
);
layerId = "7C6EC3B8-53E3-46D5-865A-ED8DFE2E3A2E";
paths = (
{
closed = 1;
nodes = (
"-44 181 OFFCURVE",
"75 2 OFFCURVE",
"457 2 CURVE SMOOTH",
"471 2 OFFCURVE",
"492 2 OFFCURVE",
"515 1 CURVE SMOOTH",
"590 0 OFFCURVE",
"700 -2 OFFCURVE",
"759 5 CURVE SMOOTH",
"1247 61 OFFCURVE",
"1141 254 OFFCURVE",
"1077 582 CURVE",
"1048 576 LINE",
"1113 244 OFFCURVE",
"1200 86 OFFCURVE",
"756 35 CURVE SMOOTH",
"680 26 OFFCURVE",
"517 32 OFFCURVE",
"457 32 CURVE SMOOTH",
"97 32 OFFCURVE",
"-10 192 OFFCURVE",
"103 566 CURVE",
"74 574 LINE"
);
}
);
width = 1163;
}
);
rightMetricsKey = "=|";
unicode = 066E;
},
{
glyphname = "behDotless-ar.medi";
lastChange = "2019-09-17 12:16:29 +0000";
layers = (
{
layerId = "7C6EC3B8-53E3-46D5-865A-ED8DFE2E3A2E";
paths = (
{
closed = 1;
nodes = (
"485 69 OFFCURVE",
"508 28 OFFCURVE",
"599 0 CURVE",
"599 31 LINE",
"528 54 OFFCURVE",
"510 91 OFFCURVE",
"510 217 CURVE",
"481 213 LINE"
);
},
{
closed = 1;
nodes = (
"522 117 OFFCURVE",
"480 30 OFFCURVE",
"231 30 CURVE SMOOTH",
"104 30 OFFCURVE",
"72 122 OFFCURVE",
"72 514 CURVE",
"42 514 LINE",
"42 107 OFFCURVE",
"80 0 OFFCURVE",
"231 0 CURVE SMOOTH",
"504 0 OFFCURVE",
"555 108 OFFCURVE",
"478 503 CURVE",
"449 497 LINE"
);
},
{
closed = 1;
nodes = (
"74 1 OFFCURVE",
"100 71 OFFCURVE",
"84 223 CURVE",
"55 225 LINE",
"71 92 OFFCURVE",
"54 31 OFFCURVE",
"1 30 CURVE",
"1 0 LINE"
);
}
);
width = 600;
}
);
},
{
glyphname = "behDotless-ar.init";
lastChange = "2019-09-17 12:40:54 +0000";
layers = (
{
anchors = (
{
name = "#exit";
position = "{0, 0}";
}
);
layerId = "7C6EC3B8-53E3-46D5-865A-ED8DFE2E3A2E";
paths = (
{
closed = 1;
nodes = (
"323 -27 OFFCURVE",
"442 178 OFFCURVE",
"293 514 CURVE",
"266 502 LINE",
"406 187 OFFCURVE",
"302 5 OFFCURVE",
"0 30 CURVE",
"-2 0 LINE"
);
}
);
width = 377;
}
);
},
{
glyphname = "hah-ar";
lastChange = "2019-09-19 18:54:22 +0000";
layers = (
{
layerId = "7C6EC3B8-53E3-46D5-865A-ED8DFE2E3A2E";
paths = (
{
closed = 1;
nodes = (
"172 -486 OFFCURVE",
"30 -389 OFFCURVE",
"30 -218 CURVE SMOOTH",
"30 -77 OFFCURVE",
"183 31 OFFCURVE",
"441 31 CURVE SMOOTH",
"502 31 OFFCURVE",
"566 28 OFFCURVE",
"614 21 CURVE",
"618 51 LINE",
"571 58 OFFCURVE",
"507 61 OFFCURVE",
"445 61 CURVE SMOOTH",
"165 61 OFFCURVE",
"0 -59 OFFCURVE",
"0 -219 CURVE SMOOTH",
"0 -409 OFFCURVE",
"153 -517 OFFCURVE",
"412 -510 CURVE",
"412 -480 LINE"
);
},
{
closed = 1;
nodes = (
"664 30 LINE",
"451 95 OFFCURVE",
"555 506 OFFCURVE",
"276 506 CURVE SMOOTH",
"133 506 OFFCURVE",
"27 326 OFFCURVE",
"9 300 CURVE",
"33 282 LINE",
"52 309 OFFCURVE",
"151 476 OFFCURVE",
"276 476 CURVE SMOOTH",
"511 476 OFFCURVE",
"419 55 OFFCURVE",
"664 0 CURVE"
);
}
);
width = 745;
}
);
unicode = 062D;
},
{
glyphname = "hah-ar.init";
lastChange = "2019-09-19 18:54:40 +0000";
layers = (
{
anchors = (
{
name = "#exit";
position = "{0, 0}";
}
);
backgroundImage = {
crop = "{{0, 0}, {330, 430}}";
imagePath = "sketches/hah/hah-initial.JPG";
transform = "{3.33681, 0, 0, 3.33681, -1244, -388}";
};
layerId = "7C6EC3B8-53E3-46D5-865A-ED8DFE2E3A2E";
paths = (
{
closed = 1;
nodes = (
"699 95 OFFCURVE",
"642 221 OFFCURVE",
"576 323 CURVE SMOOTH",
"507 429 OFFCURVE",
"435 483 OFFCURVE",
"360 483 CURVE SMOOTH",
"217 483 OFFCURVE",
"111 303 OFFCURVE",
"93 277 CURVE",
"117 259 LINE",
"136 286 OFFCURVE",
"235 453 OFFCURVE",
"360 453 CURVE SMOOTH",
"424 453 OFFCURVE",
"487 405 OFFCURVE",
"551 307 CURVE SMOOTH",
"616 207 OFFCURVE",
"676 72 OFFCURVE",
"860 1 CURVE",
"871 29 LINE"
);
},
{
closed = 1;
nodes = (
"100 -26 OFFCURVE",
"209 -39 OFFCURVE",
"336 -39 CURVE SMOOTH",
"449 -39 OFFCURVE",
"559 -28 OFFCURVE",
"669 -18 CURVE SMOOTH",
"775 -8 OFFCURVE",
"881 3 OFFCURVE",
"940 3 CURVE",
"940 33 LINE",
"767 32 OFFCURVE",
"558 -9 OFFCURVE",
"336 -9 CURVE SMOOTH",
"211 -9 OFFCURVE",
"105 3 OFFCURVE",
"1 30 CURVE",
"-6 0 LINE"
);
}
);
width = 1010;
}
);
unicode = FEA3;
},
{
glyphname = "dal-ar";
lastChange = "2019-09-17 12:57:05 +0000";
layers = (
{
background = {
paths = (
{
closed = 0;
nodes = (
"53 484 LINE",
"278 401 OFFCURVE",
"585 326 OFFCURVE",
"504 118 CURVE SMOOTH",
"433 -64 OFFCURVE",
"150 -39 OFFCURVE",
"17 -32 CURVE SMOOTH"
);
}
);
};
layerId = "7C6EC3B8-53E3-46D5-865A-ED8DFE2E3A2E";
paths = (
{
closed = 1;
nodes = (
"151 -54 OFFCURVE",
"441 -80 OFFCURVE",
"514 113 CURVE SMOOTH",
"600 336 OFFCURVE",
"282 415 OFFCURVE",
"61 498 CURVE",
"51 470 LINE",
"273 386 OFFCURVE",
"560 315 OFFCURVE",
"486 123 CURVE SMOOTH",
"421 -48 OFFCURVE",
"153 -24 OFFCURVE",
"22 -17 CURVE",
"20 -47 LINE"
);
}
);
width = 548;
}
);
unicode = 062F;
},
{
glyphname = "reh-ar";
lastChange = "2019-09-17 13:03:49 +0000";
layers = (
{
anchors = (
{
name = "#entry";
position = "{343, 0}";
}
);
background = {
paths = (
{
closed = 0;
nodes = (
"275 494 LINE",
"323 197 OFFCURVE",
"467 -207 OFFCURVE",
"5 -529 CURVE"
);
}
);
};
layerId = "7C6EC3B8-53E3-46D5-865A-ED8DFE2E3A2E";
paths = (
{
closed = 1;
nodes = (
"478 -213 OFFCURVE",
"334 201 OFFCURVE",
"287 494 CURVE",
"258 489 LINE",
"305 193 OFFCURVE",
"442 -201 OFFCURVE",
"0 -517 CURVE",
"17 -541 LINE"
);
}
);
width = 346;
}
);
unicode = 0631;
},
{
glyphname = "seen-ar";
lastChange = "2019-09-17 19:19:04 +0000";
layers = (
{
background = {
paths = (
{
closed = 0;
nodes = (
"1333 542 LINE",
"1344 491 OFFCURVE",
"1388 316 OFFCURVE",
"1388 178 CURVE SMOOTH",
"1388 76 OFFCURVE",
"1364 -19 OFFCURVE",
"1287 -19 CURVE SMOOTH",
"1238 -19 OFFCURVE",
"1136 27 OFFCURVE",
"1042 160 CURVE"
);
},
{
closed = 0;
nodes = (
"941 517 LINE",
"968 451 OFFCURVE",
"1042 286 OFFCURVE",
"1042 160 CURVE SMOOTH",
"1042 70 OFFCURVE",
"1004 -4 OFFCURVE",
"882 -1 CURVE SMOOTH",
"843 0 OFFCURVE",
"803 11 OFFCURVE",
"784 19 CURVE"
);
},
{
closed = 0;
nodes = (
"567 498 LINE",
"587 441 OFFCURVE",
"808 129 OFFCURVE",
"808 -158 CURVE SMOOTH",
"808 -755 OFFCURVE",
"31 -693 OFFCURVE",
"31 -60 CURVE SMOOTH",
"31 -19 OFFCURVE",
"36 22 OFFCURVE",
"48 63 CURVE SMOOTH"
);
}
);
};
layerId = "7C6EC3B8-53E3-46D5-865A-ED8DFE2E3A2E";
paths = (
{
closed = 1;
nodes = (
"1105 42 OFFCURVE",
"1210 -34 OFFCURVE",
"1284 -34 CURVE SMOOTH",
"1359 -34 OFFCURVE",
"1399 42 OFFCURVE",
"1399 178 CURVE SMOOTH",
"1399 318 OFFCURVE",
"1355 495 OFFCURVE",
"1344 545 CURVE",
"1315 539 LINE",
"1326 488 OFFCURVE",
"1369 315 OFFCURVE",
"1369 178 CURVE SMOOTH",
"1369 59 OFFCURVE",
"1338 -4 OFFCURVE",
"1284 -4 CURVE SMOOTH",
"1221 -4 OFFCURVE",
"1124 68 OFFCURVE",
"1052 169 CURVE",
"1028 151 LINE"
);
},
{
closed = 1;
nodes = (
"799 9 OFFCURVE",
"840 0 OFFCURVE",
"881 -1 CURVE SMOOTH",
"994 -4 OFFCURVE",
"1055 57 OFFCURVE",
"1055 173 CURVE SMOOTH",
"1055 302 OFFCURVE",
"980 467 OFFCURVE",
"954 532 CURVE",
"926 521 LINE",
"953 455 OFFCURVE",
"1025 295 OFFCURVE",
"1025 173 CURVE SMOOTH",
"1025 74 OFFCURVE",
"978 27 OFFCURVE",
"881 29 CURVE SMOOTH",
"844 30 OFFCURVE",
"806 38 OFFCURVE",
"788 43 CURVE",
"779 14 LINE"
);
},
{
closed = 1;
nodes = (
"25 27 OFFCURVE",
"20 -16 OFFCURVE",
"20 -60 CURVE SMOOTH",
"20 -712 OFFCURVE",
"822 -775 OFFCURVE",
"822 -158 CURVE SMOOTH",
"823 77 OFFCURVE",
"679 327 OFFCURVE",
"612 442 CURVE SMOOTH",
"596 470 OFFCURVE",
"585 489 OFFCURVE",
"582 498 CURVE",
"554 488 LINE",
"575 433 OFFCURVE",
"793 124 OFFCURVE",
"792 -158 CURVE SMOOTH",
"792 -734 OFFCURVE",
"50 -674 OFFCURVE",
"50 -60 CURVE SMOOTH",
"50 -18 OFFCURVE",
"55 21 OFFCURVE",
"66 59 CURVE",
"37 67 LINE"
);
}
);
width = 1409;
}
);
unicode = 0633;
},
{
glyphname = "seen-ar.medi";
lastChange = "2019-09-19 15:47:54 +0000";
layers = (
{
anchors = (
{
name = "#entry";
position = "{832, 0}";
}
);
components = (
{
name = "seen-ar.init";
}
);
layerId = "7C6EC3B8-53E3-46D5-865A-ED8DFE2E3A2E";
paths = (
{
closed = 1;
nodes = (
"727 150 LINE",
"738 75 OFFCURVE",
"754 -2 OFFCURVE",
"832 0 CURVE",
"832 30 LINE",
"773 24 OFFCURVE",
"765 88 OFFCURVE",
"756 156 CURVE"
);
}
);
width = 832;
}
);
unicode = FEB4;
},
{
glyphname = "seen-ar.init";
lastChange = "2019-09-19 15:48:52 +0000";
layers = (
{
anchors = (
{
name = top;
position = "{345, 826}";
}
);
background = {
paths = (
{
closed = 0;
nodes = (
"625 506 LINE",
"689 350 OFFCURVE",
"751 225 OFFCURVE",
"751 137 CURVE SMOOTH",
"751 73 OFFCURVE",
"702 16 OFFCURVE",
"644 16 CURVE SMOOTH",
"559 16 OFFCURVE",
"480 101 OFFCURVE",
"452 172 CURVE SMOOTH"
);
},
{
closed = 0;
nodes = (
"336 505 LINE",
"430 277 OFFCURVE",
"454 203 OFFCURVE",
"454 138 CURVE SMOOTH",
"454 -66 OFFCURVE",
"207 -72 OFFCURVE",
"126 161 CURVE"
);
},
{
closed = 0;
nodes = (
"34 470 LINE",
"141 183 OFFCURVE",
"208 0 OFFCURVE",
"-67 0 CURVE"
);
}
);
};
layerId = "7C6EC3B8-53E3-46D5-865A-ED8DFE2E3A2E";
paths = (
{
closed = 1;
nodes = (
"468 75 OFFCURVE",
"557 1 OFFCURVE",
"636 1 CURVE SMOOTH",
"701 1 OFFCURVE",
"757 64 OFFCURVE",
"757 137 CURVE SMOOTH",
"757 214 OFFCURVE",
"713 316 OFFCURVE",
"662 434 CURVE SMOOTH",
"652 457 OFFCURVE",
"642 481 OFFCURVE",
"631 506 CURVE",
"604 495 LINE",
"667 344 OFFCURVE",
"727 222 OFFCURVE",
"727 137 CURVE SMOOTH",
"727 80 OFFCURVE",
"685 31 OFFCURVE",
"636 31 CURVE SMOOTH",
"570 31 OFFCURVE",
"492 97 OFFCURVE",
"460 177 CURVE",
"432 167 LINE"
);
},
{
closed = 1;
nodes = (
"191 -81 OFFCURVE",
"463 -94 OFFCURVE",
"463 138 CURVE SMOOTH",
"463 206 OFFCURVE",
"438 282 OFFCURVE",
"345 505 CURVE",
"317 494 LINE",
"409 274 OFFCURVE",
"433 200 OFFCURVE",
"433 138 CURVE SMOOTH",
"433 -59 OFFCURVE",
"208 -40 OFFCURVE",
"137 166 CURVE",
"109 156 LINE"
);
},
{
closed = 1;
nodes = (
"0 0 LINE",
"213 20 OFFCURVE",
"143 213 OFFCURVE",
"46 475 CURVE",
"18 465 LINE",
"113 207 OFFCURVE",
"170 51 OFFCURVE",
"0 30 CURVE"
);
}
);
width = 771;
}
);
unicode = FEB3;
},
{
glyphname = "sad-ar";
lastChange = "2019-09-19 16:18:46 +0000";
layers = (
{
layerId = "7C6EC3B8-53E3-46D5-865A-ED8DFE2E3A2E";
paths = (
{
closed = 1;
nodes = (
"-25 -315 OFFCURVE",
"85 -513 OFFCURVE",
"313 -513 CURVE SMOOTH",
"334 -513 OFFCURVE",
"356 -511 OFFCURVE",
"384 -505 CURVE SMOOTH",
"638 -451 OFFCURVE",
"794 -273 OFFCURVE",
"794 -31 CURVE SMOOTH",
"794 43 OFFCURVE",
"770 126 OFFCURVE",
"744 215 CURVE SMOOTH",
"718 302 OFFCURVE",
"691 396 OFFCURVE",
"680 498 CURVE",
"650 495 LINE",
"673 282 OFFCURVE",
"764 108 OFFCURVE",
"764 -31 CURVE SMOOTH",
"764 -258 OFFCURVE",
"619 -425 OFFCURVE",
"378 -476 CURVE SMOOTH",
"353 -481 OFFCURVE",
"332 -483 OFFCURVE",
"313 -483 CURVE SMOOTH",
"105 -483 OFFCURVE",
"7 -301 OFFCURVE",
"35 33 CURVE",
"5 35 LINE"
);
},
{
closed = 1;
nodes = (
"762 21 OFFCURVE",
"783 3 OFFCURVE",
"837 1 CURVE SMOOTH",
"1330 -17 OFFCURVE",
"1704 -8 OFFCURVE",
"1704 231 CURVE SMOOTH",
"1704 426 OFFCURVE",
"1434 523 OFFCURVE",
"1237 499 CURVE SMOOTH",
"1051 476 OFFCURVE",
"890 264 OFFCURVE",
"832 -33 CURVE",
"861 -39 LINE",
"917 245 OFFCURVE",
"1069 447 OFFCURVE",
"1241 469 CURVE SMOOTH",
"1431 493 OFFCURVE",
"1674 405 OFFCURVE",
"1674 231 CURVE SMOOTH",
"1674 22 OFFCURVE",
"1331 18 OFFCURVE",
"838 31 CURVE SMOOTH",
"801 32 OFFCURVE",
"790 41 OFFCURVE",
"769 126 CURVE",
"739 122 LINE"
);
}
);
width = 1704;
}
);
unicode = 0635;
},
{
glyphname = "sad-ar.init";
lastChange = "2019-09-19 16:09:06 +0000";
layers = (
{
anchors = (
{
name = "#entry";
position = "{596, 0}";
},
{
name = "#exit";
position = "{-1, 0}";
}
);
layerId = "7C6EC3B8-53E3-46D5-865A-ED8DFE2E3A2E";
paths = (
{
closed = 1;
nodes = (
"56 54 OFFCURVE",
"94 3 OFFCURVE",
"148 1 CURVE SMOOTH",
"641 -17 OFFCURVE",
"1015 -8 OFFCURVE",
"1015 231 CURVE SMOOTH",
"1015 426 OFFCURVE",
"745 523 OFFCURVE",
"548 499 CURVE SMOOTH",
"362 476 OFFCURVE",
"201 264 OFFCURVE",
"143 -33 CURVE",
"172 -39 LINE",
"228 245 OFFCURVE",
"380 447 OFFCURVE",
"552 469 CURVE SMOOTH",
"742 493 OFFCURVE",
"985 405 OFFCURVE",
"985 231 CURVE SMOOTH",
"985 22 OFFCURVE",
"642 18 OFFCURVE",
"149 31 CURVE SMOOTH",
"112 32 OFFCURVE",
"86 71 OFFCURVE",
"85 126 CURVE",
"55 125 LINE"
);
},
{
closed = 1;
nodes = (
"0 0 LINE",
"47 0 OFFCURVE",
"85 8 OFFCURVE",
"85 112 CURVE SMOOTH",
"85 170 OFFCURVE",
"77 249 OFFCURVE",
"88 483 CURVE",
"58 484 LINE",
"50 302 OFFCURVE",
"53 212 OFFCURVE",
"54 155 CURVE",
"55 139 OFFCURVE",
"55 125 OFFCURVE",
"55 112 CURVE SMOOTH",
"55 40 OFFCURVE",
"37 30 OFFCURVE",
"0 30 CURVE"
);
}
);
width = 1015;
}
);
unicode = FEBB;
},
{
glyphname = "tah-ar.init";
lastChange = "2019-09-23 14:33:52 +0000";
layers = (
{
anchors = (
{
name = "#entry";
position = "{793, 0}";
},
{
name = "#exit";
position = "{0, 0}";
}
);
layerId = "7C6EC3B8-53E3-46D5-865A-ED8DFE2E3A2E";
paths = (
{
closed = 1;
nodes = (
"39 1 OFFCURVE",
"338 0 OFFCURVE",
"472 0 CURVE SMOOTH",
"849 0 OFFCURVE",
"981 40 OFFCURVE",
"981 290 CURVE SMOOTH",
"981 460 OFFCURVE",
"865 561 OFFCURVE",
"671 561 CURVE SMOOTH",
"316 561 OFFCURVE",
"83 341 OFFCURVE",
"49 -27 CURVE",
"79 -29 LINE",
"111 323 OFFCURVE",
"332 531 OFFCURVE",
"671 531 CURVE SMOOTH",
"849 531 OFFCURVE",
"951 443 OFFCURVE",
"951 290 CURVE SMOOTH",
"951 59 OFFCURVE",
"811 30 OFFCURVE",
"472 30 CURVE SMOOTH",
"247 30 OFFCURVE",
"109 34 OFFCURVE",
"0 30 CURVE",
"0 0 LINE"
);
},
{
closed = 1;
nodes = (
"80 48 OFFCURVE",
"91 155 OFFCURVE",
"101 264 CURVE SMOOTH",
"112 389 OFFCURVE",
"125 514 OFFCURVE",
"125 664 CURVE SMOOTH",
"125 789 OFFCURVE",
"117 912 OFFCURVE",
"101 1049 CURVE",
"71 1045 LINE",
"88 908 OFFCURVE",
"95 787 OFFCURVE",
"95 664 CURVE SMOOTH",
"95 386 OFFCURVE",
"53 191 OFFCURVE",
"48 -75 CURVE",
"78 -75 LINE"
);
}
);
width = 981;
}
);
unicode = FEC3;
},
{
glyphname = "ain-ar";
lastChange = "2019-09-19 17:35:57 +0000";
layers = (
{
layerId = "7C6EC3B8-53E3-46D5-865A-ED8DFE2E3A2E";
paths = (
{
closed = 1;
nodes = (
"-87 -493 OFFCURVE",
"-59 42 OFFCURVE",
"394 -5 CURVE",
"398 25 LINE",
"-97 76 OFFCURVE",
"-129 -525 OFFCURVE",
"425 -510 CURVE",
"425 -480 LINE"
);
},
{
closed = 1;
nodes = (
"207 -2 LINE",
"184 8 OFFCURVE",
"161 22 OFFCURVE",
"144 36 CURVE SMOOTH",
"18 144 OFFCURVE",
"-7 286 OFFCURVE",
"87 401 CURVE SMOOTH",
"141 467 OFFCURVE",
"258 488 OFFCURVE",
"381 451 CURVE",
"390 482 LINE",
"255 519 OFFCURVE",
"124 495 OFFCURVE",
"64 420 CURVE SMOOTH",
"-40 291 OFFCURVE",
"-16 129 OFFCURVE",
"126 11 CURVE SMOOTH",
"137 2 OFFCURVE",
"152 -8 OFFCURVE",
"167 -16 CURVE"
);
}
);
width = 445;
}
);
unicode = 0639;
},
{
glyphname = "ain-ar.fina";
lastChange = "2019-09-19 18:31:14 +0000";
layers = (
{
anchors = (
{
name = "#entry";
position = "{652, -1}";
}
);
background = {
paths = (
{
closed = 0;
nodes = (
"651 20 LINE",
"519 19 OFFCURVE",
"286 162 OFFCURVE",
"67 378 CURVE",
"219 446 OFFCURVE",
"395 493 OFFCURVE",
"503 493 CURVE SMOOTH",
"557 493 OFFCURVE",
"592 428 OFFCURVE",
"592 331 CURVE SMOOTH",
"592 73 OFFCURVE",
"87 -1 OFFCURVE",
"87 -266 CURVE SMOOTH",
"87 -399 OFFCURVE",
"227 -511 OFFCURVE",
"459 -511 CURVE SMOOTH",
"500 -511 OFFCURVE",
"545 -508 OFFCURVE",
"592 -500 CURVE"
);
}
);
};
layerId = "7C6EC3B8-53E3-46D5-865A-ED8DFE2E3A2E";
paths = (
{
closed = 1;
nodes = (
"548 -497 OFFCURVE",
"504 -501 OFFCURVE",
"459 -501 CURVE SMOOTH",
"250 -501 OFFCURVE",
"102 -405 OFFCURVE",
"102 -271 CURVE SMOOTH",
"102 -146 OFFCURVE",
"223 -65 OFFCURVE",
"350 19 CURVE SMOOTH",
"476 103 OFFCURVE",
"607 190 OFFCURVE",
"607 326 CURVE SMOOTH",
"607 432 OFFCURVE",
"566 503 OFFCURVE",
"503 503 CURVE SMOOTH",
"394 503 OFFCURVE",
"217 456 OFFCURVE",
"61 387 CURVE",
"56 362 LINE",
"279 143 OFFCURVE",
"515 -1 OFFCURVE",
"651 0 CURVE",
"651 30 LINE",
"526 29 OFFCURVE",
"305 163 OFFCURVE",
"93 368 CURVE",
"240 431 OFFCURVE",
"403 473 OFFCURVE",
"503 473 CURVE SMOOTH",
"547 473 OFFCURVE",
"577 415 OFFCURVE",
"577 326 CURVE SMOOTH",
"577 80 OFFCURVE",
"72 6 OFFCURVE",
"72 -271 CURVE SMOOTH",
"72 -423 OFFCURVE",
"233 -531 OFFCURVE",
"459 -531 CURVE SMOOTH",
"506 -531 OFFCURVE",
"551 -527 OFFCURVE",
"595 -520 CURVE",
"589 -490 LINE"
);
}
);
width = 651;
}
);
unicode = FECA;
},
{
glyphname = "ain-ar.medi";
lastChange = "2019-09-19 17:19:57 +0000";
layers = (
{
layerId = "7C6EC3B8-53E3-46D5-865A-ED8DFE2E3A2E";
paths = (
{
closed = 1;
nodes = (
"0 0 LINE",
"201 0 OFFCURVE",
"292 -4 OFFCURVE",
"429 70 CURVE SMOOTH",
"559 140 OFFCURVE",
"632 237 OFFCURVE",
"632 341 CURVE SMOOTH",
"632 444 OFFCURVE",
"577 534 OFFCURVE",
"512 533 CURVE SMOOTH",
"413 531 OFFCURVE",
"196 477 OFFCURVE",
"45 407 CURVE",
"40 383 LINE",
"168 251 OFFCURVE",
"465 0 OFFCURVE",
"661 0 CURVE",
"661 30 LINE",
"485 29 OFFCURVE",
"214 253 OFFCURVE",
"77 388 CURVE",
"224 453 OFFCURVE",
"421 501 OFFCURVE",
"512 503 CURVE SMOOTH",
"558 504 OFFCURVE",
"602 426 OFFCURVE",
"602 341 CURVE SMOOTH",
"602 248 OFFCURVE",
"536 162 OFFCURVE",
"415 96 CURVE SMOOTH",
"283 26 OFFCURVE",
"197 30 OFFCURVE",
"0 30 CURVE"
);
}
);
width = 661;
}
);
unicode = FECC;
},
{
glyphname = "ain-ar.init";
lastChange = "2019-09-19 17:04:20 +0000";
layers = (
{
layerId = "7C6EC3B8-53E3-46D5-865A-ED8DFE2E3A2E";
paths = (
{
closed = 1;
nodes = (
"166 78 OFFCURVE",
"88 168 OFFCURVE",
"88 253 CURVE SMOOTH",
"88 402 OFFCURVE",
"197 500 OFFCURVE",
"364 500 CURVE SMOOTH",
"391 500 OFFCURVE",
"426 493 OFFCURVE",
"453 483 CURVE",
"463 511 LINE",
"434 522 OFFCURVE",
"395 530 OFFCURVE",
"364 530 CURVE SMOOTH",
"181 530 OFFCURVE",
"58 419 OFFCURVE",
"58 253 CURVE SMOOTH",
"58 156 OFFCURVE",
"144 55 OFFCURVE",
"272 -1 CURVE",
"284 27 LINE"
);
},
{
closed = 1;
nodes = (
"0 0 LINE",
"57 -2 OFFCURVE",
"119 -4 OFFCURVE",
"174 -4 CURVE SMOOTH",
"302 -4 OFFCURVE",
"457 3 OFFCURVE",
"562 14 CURVE",
"558 44 LINE",
"456 33 OFFCURVE",
"303 26 OFFCURVE",
"174 26 CURVE SMOOTH",
"118 26 OFFCURVE",
"56 28 OFFCURVE",
"0 30 CURVE"
);
}
);
width = 600;
}
);
unicode = FECB;
},
{
glyphname = "fehDotless-ar";
lastChange = "2019-09-23 14:48:19 +0000";
layers = (
{
layerId = "7C6EC3B8-53E3-46D5-865A-ED8DFE2E3A2E";
paths = (
{
closed = 1;
nodes = (
"834 -4 OFFCURVE",
"884 -4 CURVE SMOOTH",
"1061 -4 OFFCURVE",
"1257 31 OFFCURVE",
"1257 239 CURVE SMOOTH",
"1257 249 OFFCURVE",
"1256 259 OFFCURVE",
"1256 268 CURVE",
"1240 458 OFFCURVE",
"1139 578 OFFCURVE",
"996 578 CURVE SMOOTH",
"954 578 OFFCURVE",
"913 567 OFFCURVE",
"876 546 CURVE SMOOTH",
"782 492 OFFCURVE",
"726 400 OFFCURVE",
"726 298 CURVE SMOOTH",
"726 230 OFFCURVE",
"753 171 OFFCURVE",
"793 151 CURVE SMOOTH",
"839 128 OFFCURVE",
"898 117 OFFCURVE",
"966 117 CURVE SMOOTH",
"1061 117 OFFCURVE",
"1188 146 OFFCURVE",
"1284 189 CURVE",
"1272 216 LINE",
"1180 179 OFFCURVE",
"1056 147 OFFCURVE",
"966 147 CURVE SMOOTH",
"903 147 OFFCURVE",
"848 158 OFFCURVE",
"806 178 CURVE SMOOTH",
"777 192 OFFCURVE",
"757 241 OFFCURVE",
"756 298 CURVE",
"756 389 OFFCURVE",
"806 472 OFFCURVE",
"891 520 CURVE SMOOTH",
"923 538 OFFCURVE",
"960 548 OFFCURVE",
"996 548 CURVE SMOOTH",
"1123 548 OFFCURVE",
"1209 441 OFFCURVE",
"1226 266 CURVE SMOOTH",
"1227 256 OFFCURVE",
"1227 247 OFFCURVE",
"1227 240 CURVE SMOOTH",
"1227 91 OFFCURVE",
"1121 26 OFFCURVE",
"884 26 CURVE SMOOTH",
"812 26 OFFCURVE",
"529 28 OFFCURVE",
"437 28 CURVE SMOOTH",
"77 28 OFFCURVE",
"-30 184 OFFCURVE",
"83 558 CURVE",
"54 566 LINE",
"-64 173 OFFCURVE",
"55 -2 OFFCURVE",
"437 -2 CURVE SMOOTH",
"520 -2 OFFCURVE"
);
}
);
width = 1304;
}
);
unicode = 06A1;
},
{
glyphname = "fehDotless-ar.fina";
lastChange = "2019-09-19 19:16:39 +0000";
layers = (
{
anchors = (
{
name = "#entry";
position = "{1239, 0}";
}
);
layerId = "7C6EC3B8-53E3-46D5-865A-ED8DFE2E3A2E";
paths = (
{
closed = 1;
nodes = (
"936 -20 OFFCURVE",
"1050 45 CURVE SMOOTH",
"1170 113 OFFCURVE",
"1233 229 OFFCURVE",
"1206 350 CURVE SMOOTH",
"1105 803 OFFCURVE",
"481 475 OFFCURVE",
"799 139 CURVE SMOOTH",
"884 49 OFFCURVE",
"1038 -8 OFFCURVE",
"1239 0 CURVE",
"1239 30 LINE",
"1047 22 OFFCURVE",
"900 77 OFFCURVE",
"822 160 CURVE SMOOTH",
"541 460 OFFCURVE",
"1088 747 OFFCURVE",
"1177 344 CURVE SMOOTH",
"1201 235 OFFCURVE",
"1146 129 OFFCURVE",
"1036 71 CURVE SMOOTH",
"936 18 OFFCURVE",
"924 29 OFFCURVE",
"427 29 CURVE SMOOTH",
"67 29 OFFCURVE",
"-40 185 OFFCURVE",
"73 559 CURVE",
"44 567 LINE",
"-74 174 OFFCURVE",
"45 -1 OFFCURVE",
"427 -1 CURVE SMOOTH",
"837 -1 OFFCURVE"
);
}
);
width = 1239;
}
);
},
{
glyphname = "fehDotless-ar.medi";
lastChange = "2019-09-19 19:09:37 +0000";
layers = (
{
anchors = (
{
name = "#entry";
position = "{600, 0}";
},
{
name = "#exit";
position = "{0, 0}";
}
);
layerId = "7C6EC3B8-53E3-46D5-865A-ED8DFE2E3A2E";
paths = (
{
closed = 1;
nodes = (
"122 -16 OFFCURVE",
"281 -38 OFFCURVE",
"411 30 CURVE SMOOTH",
"533 94 OFFCURVE",
"594 214 OFFCURVE",
"567 335 CURVE SMOOTH",
"466 788 OFFCURVE",
"-158 460 OFFCURVE",
"160 124 CURVE SMOOTH",
"245 34 OFFCURVE",
"399 -21 OFFCURVE",
"600 0 CURVE",
"600 30 LINE",
"408 9 OFFCURVE",
"261 62 OFFCURVE",
"183 145 CURVE SMOOTH",
"-99 444 OFFCURVE",
"448 732 OFFCURVE",
"538 329 CURVE SMOOTH",
"562 220 OFFCURVE",
"507 114 OFFCURVE",
"397 56 CURVE SMOOTH",
"275 -8 OFFCURVE",
"122 13 OFFCURVE",
"0 30 CURVE",
"0 0 LINE"
);
}
);
width = 600;
}
);
},
{
glyphname = "fehDotless-ar.init";
lastChange = "2019-09-19 19:00:43 +0000";
layers = (
{
layerId = "7C6EC3B8-53E3-46D5-865A-ED8DFE2E3A2E";
paths = (
{
closed = 1;
nodes = (
"0 0 LINE",
"1 0 OFFCURVE",
"1 0 OFFCURVE",
"2 0 CURVE SMOOTH",
"38 0 OFFCURVE",
"172 -7 OFFCURVE",
"223 -7 CURVE SMOOTH",
"400 -7 OFFCURVE",
"596 28 OFFCURVE",
"596 236 CURVE SMOOTH",
"596 246 OFFCURVE",
"595 256 OFFCURVE",
"595 265 CURVE",
"579 455 OFFCURVE",
"478 575 OFFCURVE",
"335 575 CURVE SMOOTH",
"293 575 OFFCURVE",
"252 564 OFFCURVE",
"215 543 CURVE SMOOTH",
"121 489 OFFCURVE",
"65 397 OFFCURVE",
"65 295 CURVE SMOOTH",
"65 227 OFFCURVE",
"92 168 OFFCURVE",
"132 148 CURVE SMOOTH",
"178 125 OFFCURVE",
"237 114 OFFCURVE",
"305 114 CURVE SMOOTH",
"400 114 OFFCURVE",
"527 143 OFFCURVE",
"623 186 CURVE",
"611 213 LINE",
"519 172 OFFCURVE",
"395 144 OFFCURVE",
"305 144 CURVE SMOOTH",
"242 144 OFFCURVE",
"187 155 OFFCURVE",
"145 175 CURVE SMOOTH",
"116 189 OFFCURVE",
"96 238 OFFCURVE",
"95 295 CURVE",
"95 386 OFFCURVE",
"145 469 OFFCURVE",
"230 517 CURVE SMOOTH",
"262 535 OFFCURVE",
"299 545 OFFCURVE",
"335 545 CURVE SMOOTH",
"462 545 OFFCURVE",
"548 438 OFFCURVE",
"565 263 CURVE SMOOTH",
"566 253 OFFCURVE",
"566 244 OFFCURVE",
"566 237 CURVE SMOOTH",
"566 88 OFFCURVE",
"460 23 OFFCURVE",
"223 23 CURVE SMOOTH",
"141 23 OFFCURVE",
"63 30 OFFCURVE",
"2 30 CURVE SMOOTH",
"1 30 OFFCURVE",
"1 30 OFFCURVE",
"0 30 CURVE"
);
}
);
width = 600;
}
);
},
{
glyphname = "qafDotless-ar";
lastChange = "2019-09-23 14:53:55 +0000";
layers = (
{
background = {
paths = (
{
closed = 0;
nodes = (
"830 148 LINE",
"731 109 OFFCURVE",
"598 74 OFFCURVE",
"501 74 CURVE SMOOTH",
"434 74 OFFCURVE",
"375 86 OFFCURVE",
"330 108 CURVE SMOOTH",
"298 123 OFFCURVE",
"277 175 OFFCURVE",
"276 237 CURVE",
"276 334 OFFCURVE",
"330 423 OFFCURVE",
"421 475 CURVE SMOOTH",
"455 494 OFFCURVE",
"495 505 OFFCURVE",
"534 505 CURVE SMOOTH",
"668 505 OFFCURVE",
"762 389 OFFCURVE",
"786 200 CURVE",
"818 -42 OFFCURVE",
"812 -349 OFFCURVE",
"598 -464 CURVE SMOOTH",
"260 -645 OFFCURVE",
"-22 -381 OFFCURVE",
"40 0 CURVE SMOOTH"
);
}
);
};
layerId = "7C6EC3B8-53E3-46D5-865A-ED8DFE2E3A2E";
paths = (
{
closed = 1;
nodes = (
"-36 -391 OFFCURVE",
"267 -640 OFFCURVE",
"603 -463 CURVE SMOOTH",
"779 -371 OFFCURVE",
"843 -144 OFFCURVE",
"798 196 CURVE SMOOTH",
"773 388 OFFCURVE",
"673 505 OFFCURVE",
"533 505 CURVE SMOOTH",
"492 505 OFFCURVE",
"450 494 OFFCURVE",
"414 473 CURVE SMOOTH",
"319 420 OFFCURVE",
"262 327 OFFCURVE",
"262 225 CURVE SMOOTH",
"263 158 OFFCURVE",
"288 102 OFFCURVE",
"324 85 CURVE SMOOTH",
"372 62 OFFCURVE",
"432 50 OFFCURVE",
"501 50 CURVE SMOOTH",
"598 50 OFFCURVE",
"733 85 OFFCURVE",
"832 125 CURVE",
"821 152 LINE",
"713 109 OFFCURVE",
"585 80 OFFCURVE",
"501 80 CURVE SMOOTH",
"437 80 OFFCURVE",
"380 91 OFFCURVE",
"337 112 CURVE SMOOTH",
"312 124 OFFCURVE",
"293 170 OFFCURVE",
"292 225 CURVE",
"292 317 OFFCURVE",
"343 399 OFFCURVE",
"428 447 CURVE SMOOTH",
"460 465 OFFCURVE",
"497 475 OFFCURVE",
"533 475 CURVE SMOOTH",
"657 475 OFFCURVE",
"745 370 OFFCURVE",
"768 192 CURVE SMOOTH",
"812 -135 OFFCURVE",
"752 -351 OFFCURVE",
"589 -437 CURVE SMOOTH",
"275 -602 OFFCURVE",
"-3 -371 OFFCURVE",
"58 0 CURVE",
"29 5 LINE"
);
},
);
width = 852;
}
);
rightMetricsKey = "=|";
unicode = 066F;
},
{
glyphname = "qafDotless-ar.fina";
lastChange = "2019-09-23 14:56:35 +0000";
layers = (
{
anchors = (
{
name = "#entry";
position = "{847, 2}";
}
);
layerId = "7C6EC3B8-53E3-46D5-865A-ED8DFE2E3A2E";
paths = (
{
closed = 1;
nodes = (
"-11 -376 OFFCURVE",
"278 -616 OFFCURVE",
"600 -445 CURVE SMOOTH",
"767 -356 OFFCURVE",
"830 -136 OFFCURVE",
"785 199 CURVE SMOOTH",
"760 384 OFFCURVE",
"669 495 OFFCURVE",
"537 495 CURVE SMOOTH",
"499 495 OFFCURVE",
"460 484 OFFCURVE",
"426 465 CURVE SMOOTH",
"336 415 OFFCURVE",
"283 326 OFFCURVE",
"283 230 CURVE SMOOTH",
"283 170 OFFCURVE",
"312 132 OFFCURVE",
"331 108 CURVE SMOOTH",
"425 -11 OFFCURVE",
"632 -10 OFFCURVE",
"852 0 CURVE",
"852 30 LINE",
"631 20 OFFCURVE",
"439 19 OFFCURVE",
"355 126 CURVE SMOOTH",
"336 150 OFFCURVE",
"314 180 OFFCURVE",
"313 230 CURVE",
"313 316 OFFCURVE",
"361 392 OFFCURVE",
"441 439 CURVE SMOOTH",
"470 456 OFFCURVE",
"504 465 OFFCURVE",
"537 465 CURVE SMOOTH",
"652 465 OFFCURVE",
"733 365 OFFCURVE",
"755 195 CURVE SMOOTH",
"797 -128 OFFCURVE",
"740 -337 OFFCURVE",
"586 -419 CURVE SMOOTH",
"286 -579 OFFCURVE",
"23 -357 OFFCURVE",
"81 5 CURVE",
"52 10 LINE"
);
}
);
width = 852;
}
);
},
{
glyphname = "kaf-ar";
lastChange = "2019-09-23 15:29:35 +0000";
layers = (
{
background = {
paths = (
{
closed = 0;
nodes = (
"954 1075 LINE",
"956 860 OFFCURVE",
"956 759 OFFCURVE",
"956 544 CURVE SMOOTH",
"956 486 OFFCURVE",
"969 302 OFFCURVE",
"966 256 CURVE SMOOTH",
"957 104 OFFCURVE",
"763 -17 OFFCURVE",
"506 -17 CURVE SMOOTH",
"110 -17 OFFCURVE",
"14 241 OFFCURVE",
"34 528 CURVE"
);
}
);
};
components = (
{
alignment = -1;
name = "hamza-ar";
transform = "{1, 0, 0, 1, 216, 16}";
}
);
layerId = "7C6EC3B8-53E3-46D5-865A-ED8DFE2E3A2E";
paths = (
{
closed = 1;
nodes = (
"-3 190 OFFCURVE",
"164 -4 OFFCURVE",
"506 -4 CURVE SMOOTH",
"764 -4 OFFCURVE",
"971 119 OFFCURVE",
"977 283 CURVE SMOOTH",
"978 310 OFFCURVE",
"975 382 OFFCURVE",
"972 449 CURVE SMOOTH",
"970 500 OFFCURVE",
"967 548 OFFCURVE",
"967 572 CURVE SMOOTH",
"967 697 OFFCURVE",
"967 788 OFFCURVE",
"965 1003 CURVE",
"935 1003 LINE",
"937 788 OFFCURVE",
"937 697 OFFCURVE",
"937 572 CURVE SMOOTH",
"937 514 OFFCURVE",
"950 329 OFFCURVE",
"947 285 CURVE SMOOTH",
"937 139 OFFCURVE",
"748 26 OFFCURVE",
"506 26 CURVE SMOOTH",
"182 26 OFFCURVE",
"28 206 OFFCURVE",
"53 555 CURVE",
"23 557 LINE"
);
}
);
width = 997;
}
);
rightMetricsKey = "=|";
unicode = 0643;
},
{
glyphname = "kaf-ar.init";
lastChange = "2019-09-16 16:49:26 +0000";
layers = (
{
anchors = (
{
name = "#entry";
position = "{0, 0}";
}
);
background = {
paths = (
{
closed = 0;
nodes = (
"2 17 LINE",
"354 17 OFFCURVE",
"426 29 OFFCURVE",
"458 139 CURVE SMOOTH",
"488 241 OFFCURVE",
"368 409 OFFCURVE",
"65 446 CURVE",
"230 703 OFFCURVE",
"441 893 OFFCURVE",
"548 992 CURVE"
);
}
);
};
backgroundImage = {
crop = "{{0, 0}, {189, 369}}";
imagePath = "sketches/kaf/kaf-init.JPG";
locked = "1";
transform = "{3.08862, 0, 0, 3.08862, -1070, -40}";
};
layerId = "7C6EC3B8-53E3-46D5-865A-ED8DFE2E3A2E";
paths = (
{
closed = 1;
nodes = (
"423 902 OFFCURVE",
"213 711 OFFCURVE",
"49 453 CURVE",
"60 430 LINE",
"352 393 OFFCURVE",
"462 236 OFFCURVE",
"435 141 CURVE SMOOTH",
"408 45 OFFCURVE",
"353 30 OFFCURVE",
"0 30 CURVE",
"0 0 LINE",
"364 0 OFFCURVE",
"430 18 OFFCURVE",
"464 133 CURVE SMOOTH",
"495 239 OFFCURVE",
"376 412 OFFCURVE",
"87 456 CURVE",
"247 701 OFFCURVE",
"445 882 OFFCURVE",
"548 968 CURVE",
"528 991 LINE"
);
}
);
width = 568;
}
);
unicode = FEDB;
},
{
glyphname = "lam-ar";
lastChange = "2019-09-23 14:57:15 +0000";
layers = (
{
anchors = (
{
name = "#entry";
position = "{970, -1}";
},
{
name = top;
position = "{450, 781}";
}
);
layerId = "7C6EC3B8-53E3-46D5-865A-ED8DFE2E3A2E";
paths = (
{
closed = 1;
nodes = (
"-3 -298 OFFCURVE",
"164 -492 OFFCURVE",
"506 -492 CURVE SMOOTH",
"764 -492 OFFCURVE",
"971 -369 OFFCURVE",
"977 -205 CURVE SMOOTH",
"978 -178 OFFCURVE",
"975 -106 OFFCURVE",
"972 -39 CURVE SMOOTH",
"970 12 OFFCURVE",
"967 60 OFFCURVE",
"967 84 CURVE SMOOTH",
"962 769 OFFCURVE",
"967 860 OFFCURVE",
"965 1075 CURVE",
"935 1075 LINE",
"937 860 OFFCURVE",
"932 769 OFFCURVE",
"937 84 CURVE SMOOTH",
"937 26 OFFCURVE",
"950 -159 OFFCURVE",
"947 -203 CURVE SMOOTH",
"937 -349 OFFCURVE",
"748 -462 OFFCURVE",
"506 -462 CURVE SMOOTH",
"182 -462 OFFCURVE",
"28 -282 OFFCURVE",
"53 67 CURVE",
"23 69 LINE"
);
}
);
width = 997;
}
);
rightMetricsKey = "=|";
unicode = 0644;
},
{
glyphname = "lam-ar.medi";
lastChange = "2019-09-23 15:04:51 +0000";
layers = (
{
layerId = "7C6EC3B8-53E3-46D5-865A-ED8DFE2E3A2E";
paths = (
{
closed = 1;
nodes = (
"144 882 OFFCURVE",
"154 730 OFFCURVE",
"162 597 CURVE SMOOTH",
"186 221 OFFCURVE",
"207 1 OFFCURVE",
"450 0 CURVE",
"450 30 LINE",
"159 31 OFFCURVE",
"233 405 OFFCURVE",
"153 1055 CURVE",
"123 1051 LINE"
);
},
{
closed = 1;
nodes = (
"213 55 OFFCURVE",
"122 28 OFFCURVE",
"0 30 CURVE",
"0 0 LINE",
"133 -3 OFFCURVE",
"242 37 OFFCURVE",
"217 316 CURVE",
"187 318 LINE"
);
}
);
width = 450;
}
);
unicode = FEE0;
},
{
glyphname = "lam-ar.init";
lastChange = "2019-09-23 15:28:17 +0000";
layers = (
{
anchors = (
{
name = "#entry";
position = "{245, -1}";
}
);
layerId = "7C6EC3B8-53E3-46D5-865A-ED8DFE2E3A2E";
paths = (
{
closed = 1;
nodes = (
"34 16 OFFCURVE",
"51 61 OFFCURVE",
"51 1051 CURVE",
"21 1051 LINE",
"21 77 OFFCURVE",
"-4 -16 OFFCURVE",
"245 0 CURVE",
"245 30 LINE"
);
}
);
width = 245;
}
);
unicode = FEDF;
},
{
glyphname = "meem-ar";
lastChange = "2019-09-23 16:12:21 +0000";
layers = (
{
layerId = "7C6EC3B8-53E3-46D5-865A-ED8DFE2E3A2E";
paths = (
{
closed = 1;
nodes = (
"453 515 LINE",
"257 492 OFFCURVE",
"7 378 OFFCURVE",
"20 185 CURVE SMOOTH",
"29 54 OFFCURVE",
"31 -162 OFFCURVE",
"32 -340 CURVE SMOOTH",
"33 -466 OFFCURVE",
"34 -573 OFFCURVE",
"25 -615 CURVE",
"55 -615 LINE",
"64 -574 OFFCURVE",
"63 -472 OFFCURVE",
"62 -351 CURVE SMOOTH",
"61 -172 OFFCURVE",
"59 51 OFFCURVE",
"50 185 CURVE SMOOTH",
"38 361 OFFCURVE",
"269 466 OFFCURVE",
"455 487 CURVE"
);
},
{
closed = 1;
nodes = (
"342 30 OFFCURVE",
"246 132 OFFCURVE",
"246 257 CURVE SMOOTH",
"246 383 OFFCURVE",
"342 485 OFFCURVE",
"460 485 CURVE SMOOTH",
"578 485 OFFCURVE",
"674 383 OFFCURVE",
"674 257 CURVE SMOOTH",
"674 132 OFFCURVE",
"578 30 OFFCURVE",
"460 30 CURVE SMOOTH"
);
},
{
closed = 1;
nodes = (
"595 0 OFFCURVE",
"704 115 OFFCURVE",
"704 257 CURVE SMOOTH",
"704 401 OFFCURVE",
"595 515 OFFCURVE",
"460 515 CURVE SMOOTH",
"325 515 OFFCURVE",
"216 400 OFFCURVE",
"216 257 CURVE SMOOTH",
"216 115 OFFCURVE",
"325 0 OFFCURVE",
"460 0 CURVE SMOOTH"
);
}
);
width = 724;
}
);
rightMetricsKey = "=|";
unicode = 0645;
},
{
glyphname = "meem-ar.fina";
lastChange = "2019-09-23 16:07:22 +0000";
layers = (
{
anchors = (
{
name = "#entry";
position = "{715, 0}";
}
);
background = {
paths = (
{
closed = 1;
nodes = (
"541 534 OFFCURVE",
"446 636 OFFCURVE",
"446 762 CURVE SMOOTH",
"446 888 OFFCURVE",
"541 990 OFFCURVE",
"657 990 CURVE SMOOTH",
"773 990 OFFCURVE",
"868 888 OFFCURVE",
"868 762 CURVE SMOOTH",
"868 636 OFFCURVE",
"773 534 OFFCURVE",
"657 534 CURVE SMOOTH"
);
},
{
closed = 0;
nodes = (
"709 991 LINE",
"514 1022 OFFCURVE",
"153 908 OFFCURVE",
"153 676 CURVE SMOOTH",
"153 452 OFFCURVE",
"158 -22 OFFCURVE",
"158 -124 CURVE SMOOTH"
);
}
);
};
components = (
{
alignment = -1;
name = _connection2;
transform = "{2.21325, 0, 0, 1, 456, 0}";
},
{
name = "meem-ar";
}
);
layerId = "7C6EC3B8-53E3-46D5-865A-ED8DFE2E3A2E";
width = 715;
}
);
unicode = FEE2;
},
{
glyphname = "meem-ar.init";
lastChange = "2019-09-23 15:54:42 +0000";
layers = (
{
anchors = (
{
name = "#exit";
position = "{0, 0}";
}
);
layerId = "7C6EC3B8-53E3-46D5-865A-ED8DFE2E3A2E";
paths = (
{
closed = 1;
nodes = (
"493 0 OFFCURVE",
"601 116 OFFCURVE",
"601 258 CURVE SMOOTH",
"601 400 OFFCURVE",
"493 516 OFFCURVE",
"360 516 CURVE SMOOTH",
"227 516 OFFCURVE",
"119 400 OFFCURVE",
"119 258 CURVE SMOOTH",
"119 116 OFFCURVE",
"227 0 OFFCURVE",
"360 0 CURVE SMOOTH"
);
},
{
closed = 1;
nodes = (
"244 30 OFFCURVE",
"149 132 OFFCURVE",
"149 258 CURVE SMOOTH",
"149 384 OFFCURVE",
"244 486 OFFCURVE",
"360 486 CURVE SMOOTH",
"476 486 OFFCURVE",
"571 384 OFFCURVE",
"571 258 CURVE SMOOTH",
"571 132 OFFCURVE",
"476 30 OFFCURVE",
"360 30 CURVE SMOOTH"
);
},
{
closed = 1;
nodes = (
"121 234 OFFCURVE",
"167 41 OFFCURVE",
"0 30 CURVE",
"0 0 LINE",
"206 8 OFFCURVE",
"151 239 OFFCURVE",
"116 519 CURVE",
"86 515 LINE"
);
}
);
width = 600;
}
);
unicode = FEE3;
},
{
glyphname = "noonghunna-ar";
lastChange = "2019-09-23 18:17:40 +0000";
layers = (
{
anchors = (
{
name = "#entry";
position = "{785, 0}";
}
);
layerId = "7C6EC3B8-53E3-46D5-865A-ED8DFE2E3A2E";
paths = (
{
closed = 1;
nodes = (
"-3 -44 OFFCURVE",
"-84 -526 OFFCURVE",
"429 -515 CURVE SMOOTH",
"904 -505 OFFCURVE",
"791 65 OFFCURVE",
"740 502 CURVE",
"710 498 LINE",
"761 61 OFFCURVE",
"868 -475 OFFCURVE",
"429 -485 CURVE SMOOTH",
"-48 -496 OFFCURVE",
"27 -50 OFFCURVE",
"47 53 CURVE",
"17 59 LINE"
);
}
);
width = 789;
}
);
unicode = 06BA;
},
{
glyphname = "heh-ar";
lastChange = "2019-09-23 19:35:46 +0000";
layers = (
{
layerId = "7C6EC3B8-53E3-46D5-865A-ED8DFE2E3A2E";
paths = (
{
closed = 1;
nodes = (
"-83 38 OFFCURVE",
"17 623 OFFCURVE",
"377 626 CURVE SMOOTH",
"513 627 OFFCURVE",
"567 529 OFFCURVE",
"561 285 CURVE SMOOTH",
"557 114 OFFCURVE",
"442 25 OFFCURVE",
"234 30 CURVE SMOOTH"
);
},
{
closed = 1;
nodes = (
"458 -6 OFFCURVE",
"586 96 OFFCURVE",
"591 285 CURVE SMOOTH",
"598 544 OFFCURVE",
"534 657 OFFCURVE",
"377 656 CURVE SMOOTH",
"-9 654 OFFCURVE",
"-119 9 OFFCURVE",
"234 0 CURVE SMOOTH"
);
}
);
width = 612;
}
);
unicode = 0647;
},
{
glyphname = "heh-ar.fina";
lastChange = "2019-09-23 19:34:01 +0000";
layers = (
{
layerId = "7C6EC3B8-53E3-46D5-865A-ED8DFE2E3A2E";
paths = (
{
closed = 1;
nodes = (
"687 667 OFFCURVE",
"-3 647 OFFCURVE",
"0 234 CURVE SMOOTH",
"1 103 OFFCURVE",
"157 0 OFFCURVE",
"349 0 CURVE SMOOTH",
"591 0 OFFCURVE",
"687 81 OFFCURVE",
"687 292 CURVE SMOOTH"
);
},
{
closed = 1;
nodes = (
"657 99 OFFCURVE",
"575 30 OFFCURVE",
"349 30 CURVE SMOOTH",
"174 30 OFFCURVE",
"31 121 OFFCURVE",
"30 234 CURVE SMOOTH",
"27 607 OFFCURVE",
"657 627 OFFCURVE",
"657 292 CURVE SMOOTH"
);
},
{
closed = 1;
nodes = (
"717 30 OFFCURVE",
"688 124 OFFCURVE",
"684 554 CURVE",
"654 554 LINE",
"658 110 OFFCURVE",
"692 0 OFFCURVE",
"839 0 CURVE",
"839 30 LINE"
);
}
);
width = 839;
}
);
unicode = FEEA;
},
{
glyphname = "heh-ar.medi";
lastChange = "2019-09-23 18:31:01 +0000";
layers = (
{
anchors = (
{
name = "#entry";
position = "{716, 0}";
},
{
name = "#exit";
position = "{0, 0}";
}
);
layerId = "7C6EC3B8-53E3-46D5-865A-ED8DFE2E3A2E";
paths = (
{
closed = 1;
nodes = (
"171 -75 OFFCURVE",
"104 -189 OFFCURVE",
"104 -286 CURVE SMOOTH",
"104 -405 OFFCURVE",
"214 -497 OFFCURVE",
"350 -497 CURVE SMOOTH",
"444 -497 OFFCURVE",
"695 -361 OFFCURVE",
"695 -52 CURVE SMOOTH",
"695 45 OFFCURVE",
"671 149 OFFCURVE",
"624 260 CURVE SMOOTH",
"544 449 OFFCURVE",
"448 549 OFFCURVE",
"347 549 CURVE SMOOTH",
"232 549 OFFCURVE",
"128 404 OFFCURVE",
"128 249 CURVE SMOOTH",
"128 209 OFFCURVE",
"135 174 OFFCURVE",
"150 145 CURVE SMOOTH",
"225 -1 OFFCURVE",
"403 -46 OFFCURVE",
"716 0 CURVE",
"716 30 LINE",
"411 -14 OFFCURVE",
"243 26 OFFCURVE",
"176 159 CURVE SMOOTH",
"164 183 OFFCURVE",
"158 214 OFFCURVE",
"158 249 CURVE SMOOTH",
"158 387 OFFCURVE",
"250 519 OFFCURVE",
"347 519 CURVE SMOOTH",
"433 519 OFFCURVE",
"521 425 OFFCURVE",
"596 248 CURVE SMOOTH",
"642 140 OFFCURVE",
"665 41 OFFCURVE",
"665 -52 CURVE SMOOTH",
"665 -343 OFFCURVE",
"436 -467 OFFCURVE",
"350 -467 CURVE SMOOTH",
"230 -467 OFFCURVE",
"134 -387 OFFCURVE",
"134 -286 CURVE SMOOTH",
"134 -198 OFFCURVE",
"197 -92 OFFCURVE",
"320 24 CURVE",
"300 46 LINE"
);
},
{
closed = 1;
nodes = (
"150 -7 OFFCURVE",
"216 -1 OFFCURVE",
"292 10 CURVE",
"288 40 LINE",
"212 29 OFFCURVE",
"150 23 OFFCURVE",
"0 30 CURVE",
"0 0 LINE"
);
}
);
width = 716;
}
);
unicode = FEEC;
},
{
glyphname = "heh-ar.init";
lastChange = "2019-09-23 18:36:29 +0000";
layers = (
{
anchors = (
{
name = "#exit";
position = "{0, 0}";
}
);
layerId = "7C6EC3B8-53E3-46D5-865A-ED8DFE2E3A2E";
paths = (
{
closed = 1;
nodes = (
"34 -2 OFFCURVE",
"141 -9 OFFCURVE",
"303 32 CURVE SMOOTH",
"619 112 OFFCURVE",
"624 635 OFFCURVE",
"309 580 CURVE SMOOTH",
"29 531 OFFCURVE",
"66 112 OFFCURVE",
"354 38 CURVE SMOOTH",
"1119 -159 OFFCURVE",
"1014 516 OFFCURVE",
"286 630 CURVE",
"282 600 LINE",
"976 492 OFFCURVE",
"1074 -114 OFFCURVE",
"362 68 CURVE SMOOTH",
"104 134 OFFCURVE",
"68 502 OFFCURVE",
"315 550 CURVE SMOOTH",
"589 603 OFFCURVE",
"573 133 OFFCURVE",
"295 62 CURVE SMOOTH",
"139 22 OFFCURVE",
"36 28 OFFCURVE",
"0 30 CURVE",
"0 0 LINE"
);
}
);
width = 882;
}
);
unicode = FEEB;
},
{
glyphname = "waw-ar";
lastChange = "2019-09-23 19:02:12 +0000";
layers = (
{
layerId = "7C6EC3B8-53E3-46D5-865A-ED8DFE2E3A2E";
paths = (
{
closed = 1;
nodes = (
"436 -374 OFFCURVE",
"554 -169 OFFCURVE",
"554 152 CURVE SMOOTH",
"554 398 OFFCURVE",
"454 558 OFFCURVE",
"296 558 CURVE SMOOTH",
"177 558 OFFCURVE",
"66 409 OFFCURVE",
"66 252 CURVE SMOOTH",
"66 9 OFFCURVE",
"222 -8 OFFCURVE",
"468 -8 CURVE SMOOTH",
"499 -8 OFFCURVE",
"535 -5 OFFCURVE",
"600 0 CURVE",
"600 30 LINE",
"536 25 OFFCURVE",
"514 22 OFFCURVE",
"468 22 CURVE SMOOTH",
"224 22 OFFCURVE",
"96 35 OFFCURVE",
"96 252 CURVE SMOOTH",
"96 392 OFFCURVE",
"195 528 OFFCURVE",
"296 528 CURVE SMOOTH",
"436 528 OFFCURVE",
"524 381 OFFCURVE",
"524 152 CURVE SMOOTH",
"524 -158 OFFCURVE",
"412 -353 OFFCURVE",
"160 -483 CURVE",
"174 -509 LINE"
);
}
);
width = 600;
}
);
unicode = 0648;
},
{
glyphname = "alefMaksura-ar";
lastChange = "2019-09-23 19:18:18 +0000";
layers = (
{
layerId = "7C6EC3B8-53E3-46D5-865A-ED8DFE2E3A2E";
paths = (
{
closed = 1;
nodes = (
"-42 -381 OFFCURVE",
"88 -515 OFFCURVE",
"532 -515 CURVE SMOOTH",
"878 -515 OFFCURVE",
"1050 -417 OFFCURVE",
"1050 -216 CURVE SMOOTH",
"1050 23 OFFCURVE",
"824 25 OFFCURVE",
"638 27 CURVE SMOOTH",
"490 28 OFFCURVE",
"372 29 OFFCURVE",
"372 126 CURVE SMOOTH",
"372 382 OFFCURVE",
"642 536 OFFCURVE",
"830 486 CURVE",
"838 516 LINE",
"638 568 OFFCURVE",
"342 400 OFFCURVE",
"342 126 CURVE SMOOTH",
"342 -153 OFFCURVE",
"1020 167 OFFCURVE",
"1020 -216 CURVE SMOOTH",
"1020 -398 OFFCURVE",
"861 -485 OFFCURVE",
"532 -485 CURVE SMOOTH",
"106 -485 OFFCURVE",
"-10 -365 OFFCURVE",
"41 27 CURVE",
"11 31 LINE"
);
}
);
width = 1050;
}
);
unicode = 0649;
},
{
glyphname = "alefMaksura-ar.fina";
lastChange = "2019-09-23 19:23:20 +0000";
layers = (
{
anchors = (
{
name = "#entry";
position = "{598, -3}";
}
);
layerId = "7C6EC3B8-53E3-46D5-865A-ED8DFE2E3A2E";
paths = (
{
closed = 1;
nodes = (
"-265 8 OFFCURVE",
"-275 -62 OFFCURVE",
"-275 -128 CURVE SMOOTH",
"-275 -367 OFFCURVE",
"-99 -532 OFFCURVE",
"154 -532 CURVE SMOOTH",
"484 -532 OFFCURVE",
"600 -336 OFFCURVE",
"476 9 CURVE",
"448 -1 LINE",
"565 -328 OFFCURVE",
"462 -502 OFFCURVE",
"154 -502 CURVE SMOOTH",
"-83 -502 OFFCURVE",
"-245 -350 OFFCURVE",
"-245 -128 CURVE SMOOTH",
"-245 -64 OFFCURVE",
"-235 4 OFFCURVE",
"-226 74 CURVE",
"-256 78 LINE"
);
},
{
closed = 1;
nodes = (
"476 11 OFFCURVE",
"416 12 OFFCURVE",
"266 33 CURVE",
"262 3 LINE",
"416 -18 OFFCURVE",
"480 -19 OFFCURVE",
"600 0 CURVE",
"600 30 LINE"
);
}
);
width = 600;
}
);
unicode = FEF0;
},
{
glyphname = "dotabove-ar";
lastChange = "2019-09-16 16:18:53 +0000";
layers = (
{
anchors = (
{
name = "#bottom";
position = "{289, 500}";
},
{
name = "#top";
position = "{289, 675}";
}
);
layerId = "7C6EC3B8-53E3-46D5-865A-ED8DFE2E3A2E";
paths = (
{
closed = 1;
nodes = (
"306 605 OFFCURVE",
"324 622 OFFCURVE",
"324 640 CURVE SMOOTH",
"324 659 OFFCURVE",
"306 675 OFFCURVE",
"289 675 CURVE SMOOTH",
"269 675 OFFCURVE",
"254 659 OFFCURVE",
"254 640 CURVE SMOOTH",
"254 622 OFFCURVE",
"269 605 OFFCURVE",
"289 605 CURVE SMOOTH"
);
}
);
width = 600;
}
);
},
{
export = 0;
glyphname = _connection;
lastChange = "2019-09-16 20:23:22 +0000";
layers = (
{
anchors = (
{
name = "#entry";
position = "{117, 0}";
}
);
layerId = "7C6EC3B8-53E3-46D5-865A-ED8DFE2E3A2E";
paths = (
{
closed = 1;
nodes = (
"17 147 LINE",
"38 74 OFFCURVE",
"75 17 OFFCURVE",
"117 0 CURVE",
"128 27 LINE",
"94 40 OFFCURVE",
"63 91 OFFCURVE",
"45 157 CURVE"
);
}
);
width = 117;
}
);
},
